<svg width="256" height="256" fill="none" xmlns="http://www.w3.org/2000/svg"><path d="m81.809 146.922 14.47 1.113c14.564 21.848 47.764 21.848 62.33 0l6.678 13.356 15.583-.556c-24.882 37.915-82.344 39.214-106.853 0l7.792-13.913ZM132.452 76.8l-8.348 12.243c-23.4 2.006-40.914 26.406-33.391 48.974H75.687l-7.235 12.8C53.292 111.399 81.5 66.158 124.661 64l7.791 12.8Zm40.07 74.574-7.792-14.47c4.102-20.508-7.052-41.77-28.382-46.748l8.348-13.356-7.792-12.8c40.704 6.03 64.405 50.148 50.087 87.374h-14.469Z" fill="#1BB1ED"/></svg>